<svg xmlns="http://www.w3.org/2000/svg" data-name="Layer 1" viewBox="0 0 32 32"><path fill="#ffa200" d="M25.5,14.5a9,9,0,0,1-2.64,6.36l-1.77,1.77A1.94,1.94,0,0,0,20.51,24a.09.09,0,0,0,0,.05V29.5a1,1,0,0,1-1,1h-6a1,1,0,0,1-1-1V24.05a.09.09,0,0,0,0-.05,1.94,1.94,0,0,0-.58-1.37l-1.77-1.77A9,9,0,1,1,25.5,14.5Z"/><path fill="#8a8790" d="M22,26.5a.5.5,0,0,1-.5.5h-10a.5.5,0,0,1,0-1h10A.5.5,0,0,1,22,26.5Z"/><path fill="#dfdfe1" d="M16.5,25a.5.5,0,0,1-.5-.5v-7a.5.5,0,0,1,1,0v7A.5.5,0,0,1,16.5,25Z"/><path fill="#dfdfe1" d="M16.5,18C14,18,14,15.88,14,15.19a.5.5,0,1,1,1,0c0,1.34.39,1.81,1.5,1.81s1.5-.47,1.5-1.81a.5.5,0,1,1,1,0C19,15.88,19,18,16.5,18Z"/><path fill="#ffa200" d="M16.5 4a.5.5 0 0 1-.5-.5V.5a.5.5 0 0 1 1 0v3A.5.5 0 0 1 16.5 4zM24.44 6.56a.47.47 0 0 1-.35-.15.48.48 0 0 1 0-.7l2.12-2.12a.49.49 0 1 1 .7.7L24.79 6.41A.47.47 0 0 1 24.44 6.56zM30.5 14h-3a.5.5 0 0 1 0-1h3a.5.5 0 0 1 0 1zM27.62 23.5a.49.49 0 0 1-.35-.15l-2.12-2.12a.49.49 0 0 1 .7-.7L28 22.65a.48.48 0 0 1 0 .7A.47.47 0 0 1 27.62 23.5zM8.56 6.56a.47.47 0 0 1-.35-.15L6.09 4.29a.49.49 0 1 1 .7-.7L8.91 5.71a.48.48 0 0 1 0 .7A.47.47 0 0 1 8.56 6.56zM5.5 14h-3a.5.5 0 0 1 0-1h3a.5.5 0 0 1 0 1zM5.38 23.5A.47.47 0 0 1 5 23.35a.48.48 0 0 1 0-.7l2.12-2.12a.49.49 0 0 1 .7.7L5.73 23.35A.49.49 0 0 1 5.38 23.5z"/><path fill="#aeadb2" d="M19.5,30.5h-6a1,1,0,0,1-1-1v-1h8v1A1,1,0,0,1,19.5,30.5Z"/><path fill="#8a8790" d="M22,28.5a.5.5,0,0,1-.5.5h-10a.5.5,0,0,1,0-1h10A.5.5,0,0,1,22,28.5Z"/><rect width="8" height="1" x="12.5" y="27" fill="#aeadb2"/><rect width="8" height="1" x="12.5" y="25" fill="#aeadb2"/><path fill="#8a8790" d="M22,24.5a.5.5,0,0,1-.5.5h-10a.5.5,0,0,1,0-1h10A.5.5,0,0,1,22,24.5Z"/></svg>