<svg width="310" height="48" viewBox="0 0 310 48" fill="none" xmlns="http://www.w3.org/2000/svg">
<path d="M264.326 48C264.915 48 265.518 47.7677 265.967 47.3186L288.494 24.7875L290.228 30.3312C290.491 31.1829 291.203 31.8023 292.085 31.9417C292.209 31.9572 292.318 31.9726 292.441 31.9726C293.185 31.9726 293.897 31.6165 294.346 30.9816L299.207 24.0906L307.645 24.199C308.543 24.199 309.348 23.719 309.75 22.9447C310.153 22.1549 310.06 21.2103 309.534 20.498L304.487 13.7309L307.196 5.7404C307.49 4.90422 307.273 3.97514 306.639 3.35568C306.019 2.72083 305.09 2.504 304.254 2.79822L296.266 5.50816L289.5 0.459919C288.803 -0.0666295 287.859 -0.144041 287.069 0.243093C286.28 0.645728 285.784 1.4665 285.8 2.34909L285.908 10.7886L279.019 15.6666C278.291 16.1621 277.919 17.0448 278.059 17.912C278.198 18.7946 278.817 19.5069 279.669 19.7701L285.211 21.5046L262.685 44.0357C261.772 44.9338 261.772 46.4205 262.685 47.3186C263.134 47.7677 263.738 48 264.326 48Z" fill="black"/>
<path d="M8 48H40V44H48V32C48 26.166 44.137 21.219 38.835 19.579C41.335 17.978 43 15.182 43 12C43 7.038 38.963 3 34 3C33.145 3 32.297 3.128 31.469 3.373C29.636 1.31 26.971 0 24 0C21.029 0 18.364 1.31 16.531 3.373C15.7097 3.12747 14.8572 3.00184 14 3C9.037 3 5 7.038 5 12C5 15.182 6.665 17.978 9.165 19.579C3.863 21.219 0 26.166 0 32V44H8V48ZM38 46H10V31C10 30.666 10.021 30.336 10.05 30.009C10.06 29.902 10.073 29.796 10.085 29.689C10.112 29.463 10.147 29.24 10.188 29.019C10.209 28.907 10.226 28.794 10.25 28.683C10.312 28.396 10.385 28.114 10.468 27.835C10.51 27.697 10.56 27.563 10.607 27.427C10.7127 27.1178 10.8321 26.8135 10.965 26.515C11.029 26.372 11.099 26.232 11.169 26.092C11.271 25.888 11.379 25.688 11.493 25.491C11.593 25.32 11.693 25.149 11.801 24.984C11.885 24.856 11.975 24.732 12.064 24.607C12.158 24.475 12.255 24.345 12.355 24.218C12.447 24.101 12.539 23.985 12.636 23.872C12.762 23.725 12.893 23.583 13.026 23.443C13.2999 23.1526 13.589 22.8769 13.892 22.617C14.002 22.524 14.116 22.435 14.23 22.346C14.361 22.244 14.493 22.144 14.629 22.048C14.755 21.958 14.881 21.869 15.012 21.784C15.144 21.698 15.28 21.619 15.415 21.539C15.67 21.388 15.932 21.247 16.201 21.116C16.336 21.05 16.469 20.981 16.607 20.92L16.768 20.848C18.1084 20.2873 19.547 19.999 21 20H27C28.499 20 29.928 20.303 31.231 20.849L31.392 20.921C31.53 20.981 31.663 21.051 31.798 21.117C32.067 21.248 32.329 21.389 32.584 21.54C32.72 21.62 32.856 21.699 32.987 21.785C33.2555 21.9611 33.5164 22.1486 33.769 22.347C33.883 22.436 33.997 22.525 34.107 22.618C34.4107 22.8771 34.6998 23.1529 34.973 23.444C35.106 23.584 35.238 23.726 35.363 23.873C35.5633 24.1104 35.7541 24.3555 35.935 24.608C36.024 24.733 36.115 24.856 36.198 24.985C36.4288 25.3425 36.6398 25.7123 36.83 26.093C36.9 26.233 36.97 26.373 37.034 26.516C37.168 26.814 37.2875 27.1184 37.392 27.428C37.439 27.564 37.489 27.699 37.531 27.836C37.615 28.114 37.688 28.397 37.749 28.684C37.773 28.795 37.791 28.908 37.811 29.02C37.9316 29.6732 37.9949 30.3358 38 31V46ZM46 32V42H40V31C40 30.525 39.971 30.057 39.921 29.595C39.909 29.486 39.886 29.38 39.872 29.272C39.8265 28.9167 39.7664 28.5634 39.692 28.213C39.667 28.099 39.633 27.989 39.605 27.876C39.5228 27.5383 39.4271 27.204 39.318 26.874C39.281 26.763 39.238 26.655 39.198 26.546C39.0809 26.224 38.9512 25.9067 38.809 25.595C38.7587 25.486 38.7063 25.378 38.652 25.271C38.3018 24.557 37.885 23.8776 37.407 23.242C37.334 23.144 37.264 23.045 37.188 22.949C36.9681 22.6729 36.7369 22.406 36.495 22.149C36.427 22.076 36.364 21.999 36.294 21.928C35.979 21.6032 35.6472 21.2951 35.3 21.005C41.227 21.164 46 26.035 46 32ZM32.723 5.121C33.145 5.041 33.571 5 34 5C37.859 5 41 8.14 41 12C41 15.86 37.859 19 34 19C32.627 19 31.306 18.6 30.174 17.856C30.189 17.845 30.201 17.831 30.215 17.819C31.0768 17.1325 31.8197 16.3088 32.414 15.381L32.469 15.291C32.642 15.015 32.801 14.731 32.947 14.438L33.016 14.294C33.149 14.017 33.268 13.733 33.375 13.442L33.441 13.262C33.5379 12.9813 33.622 12.6964 33.693 12.408C33.711 12.336 33.732 12.265 33.748 12.193C33.812 11.91 33.86 11.622 33.899 11.33C33.91 11.253 33.926 11.177 33.934 11.099C33.976 10.739 34 10.372 34 10C34 9.604 33.971 9.216 33.926 8.832C33.912 8.71 33.889 8.59 33.87 8.468C33.8089 8.07283 33.7251 7.68152 33.619 7.296C33.5381 7.00881 33.444 6.72551 33.337 6.447C33.307 6.37 33.283 6.291 33.252 6.215C33.1007 5.84659 32.9274 5.48761 32.733 5.14C32.728 5.133 32.726 5.127 32.723 5.121ZM30.163 4.905L30.224 4.984C30.273 5.045 30.317 5.109 30.364 5.171C30.874 5.842 31.264 6.573 31.538 7.344C31.556 7.394 31.576 7.443 31.593 7.494C31.712 7.853 31.802 8.22 31.869 8.594C31.883 8.672 31.894 8.752 31.905 8.831C31.961 9.216 32 9.605 32 10C32 10.328 31.975 10.652 31.935 10.973C31.926 11.048 31.912 11.122 31.901 11.197C31.8613 11.4609 31.8082 11.7225 31.742 11.981C31.728 12.035 31.715 12.09 31.7 12.144C31.5203 12.7863 31.2613 13.4037 30.929 13.982L30.911 14.012C30.7491 14.2893 30.5704 14.5564 30.376 14.812L30.323 14.883C29.9129 15.4136 29.4379 15.8907 28.909 16.303L28.814 16.374C28.5659 16.5622 28.3072 16.7358 28.039 16.894C27.991 16.922 27.946 16.953 27.897 16.98L27.783 17.046C26.655 17.654 25.368 18 24 18C22.632 18 21.345 17.654 20.218 17.046L20.104 16.98C20.056 16.953 20.01 16.922 19.962 16.894C19.6938 16.7358 19.4351 16.5622 19.187 16.374L19.092 16.303C18.5636 15.8901 18.0886 15.4131 17.678 14.883L17.625 14.812C17.4309 14.5562 17.2523 14.2891 17.09 14.012L17.072 13.982C16.7391 13.4035 16.4798 12.7858 16.3 12.143C16.285 12.09 16.272 12.035 16.258 11.982C16.1919 11.7232 16.1388 11.4612 16.099 11.197C16.088 11.122 16.074 11.049 16.065 10.973C16.0232 10.6503 16.0015 10.3254 16 10C16 9.605 16.039 9.216 16.095 8.832C16.107 8.753 16.117 8.674 16.131 8.595C16.198 8.222 16.288 7.854 16.407 7.495C16.424 7.444 16.444 7.395 16.462 7.345C16.7385 6.56427 17.1346 5.83121 17.636 5.172C17.683 5.11 17.727 5.045 17.776 4.985L17.837 4.906C18.5862 3.99676 19.5272 3.26453 20.5927 2.76181C21.6581 2.25909 22.8216 1.99834 23.9998 1.99824C25.1779 1.99815 26.3414 2.25871 27.407 2.76126C28.4725 3.2638 29.4137 3.99588 30.163 4.905ZM7 12C7 8.14 10.141 5 14 5C14.429 5 14.855 5.041 15.277 5.121L15.268 5.14C15.075 5.486 14.901 5.844 14.749 6.214C14.717 6.291 14.693 6.37 14.663 6.448C14.51 6.84794 14.3834 7.25749 14.284 7.674C14.222 7.935 14.172 8.2 14.13 8.468C14.111 8.589 14.089 8.709 14.074 8.832C14.029 9.216 14 9.604 14 10C14 10.372 14.024 10.739 14.064 11.1C14.073 11.178 14.089 11.253 14.099 11.33C14.138 11.622 14.187 11.911 14.25 12.194C14.266 12.266 14.287 12.336 14.305 12.407C14.377 12.697 14.46 12.983 14.557 13.263C14.578 13.324 14.601 13.383 14.623 13.444C14.73 13.734 14.85 14.018 14.982 14.295L15.052 14.44C15.198 14.733 15.357 15.017 15.53 15.293L15.585 15.383C16.1799 16.3104 16.9227 17.1339 17.784 17.821L17.825 17.858C16.689 18.6043 15.3592 19.0013 14 19C10.141 19 7 15.86 7 12ZM2 42V32C2 26.035 6.773 21.164 12.701 21.004C12.353 21.293 12.023 21.604 11.707 21.927C11.637 21.998 11.574 22.075 11.506 22.148C11.2638 22.4054 11.0323 22.6726 10.812 22.949C10.737 23.044 10.667 23.143 10.594 23.241C10.3186 23.608 10.0633 23.9895 9.829 24.384C9.657 24.673 9.497 24.968 9.348 25.271C9.295 25.379 9.242 25.486 9.191 25.595C9.048 25.905 8.92 26.223 8.802 26.546C8.762 26.656 8.719 26.763 8.682 26.874C8.572 27.203 8.479 27.538 8.394 27.878C8.366 27.99 8.333 28.1 8.308 28.213C8.23359 28.5641 8.17354 28.918 8.128 29.274C8.113 29.382 8.091 29.487 8.079 29.596C8.029 30.057 8 30.525 8 31V42H2Z" fill="black"/>
<path d="M153.886 28.5077L151.022 28.4814L151.565 27.5102C151.675 27.8072 151.952 28.0029 152.26 28.0029C152.325 28.0029 152.391 27.9939 152.456 27.9767C152.856 27.8687 153.093 27.4569 152.985 27.0572L152.538 25.4057C152.43 25.0074 152.022 24.7719 151.622 24.8762L150.013 25.3029C149.613 25.4094 149.374 25.8197 149.481 26.2202C149.575 26.5757 149.91 26.7879 150.266 26.7609L149.095 28.8549C148.966 29.0859 148.968 29.3687 149.101 29.5974C149.234 29.8269 149.478 29.9687 149.742 29.9709L153.872 30.0084C153.874 30.0084 153.876 30.0084 153.879 30.0084C154.29 30.0084 154.625 29.6769 154.629 29.2652C154.632 28.8497 154.3 28.5114 153.886 28.5077ZM156.87 24.1577C157.201 24.1577 157.503 23.9379 157.594 23.6034L158.04 21.9512C158.148 21.5514 157.912 21.1397 157.512 21.0317C157.162 20.9379 156.818 21.1134 156.66 21.4232L155.522 19.3862C155.39 19.1499 155.141 19.0029 154.87 19.0022C154.572 18.9789 154.35 19.1454 154.215 19.3802L152.119 23.0544C151.914 23.4144 152.04 23.8719 152.399 24.0774C152.516 24.1442 152.644 24.1757 152.77 24.1757C153.031 24.1757 153.284 24.0399 153.423 23.7977L154.86 21.2769L155.406 22.2534C155.022 22.1799 154.639 22.4049 154.536 22.7889C154.43 23.1894 154.669 23.6004 155.069 23.7062L156.678 24.1329C156.742 24.1494 156.807 24.1577 156.87 24.1577ZM158.874 24.9909C158.675 24.6279 158.219 24.4944 157.856 24.6939C157.493 24.8934 157.359 25.3487 157.559 25.7117L158.984 28.3134H157.892C158.172 28.0127 158.16 27.5417 157.861 27.2574C157.561 26.9724 157.086 26.9844 156.801 27.2852L155.638 28.5099C155.364 28.7994 155.364 29.2532 155.638 29.5427L156.801 30.7674C156.948 30.9234 157.146 31.0014 157.344 31.0014C157.529 31.0014 157.715 30.9332 157.86 30.7959C158.136 30.5327 158.157 30.1134 157.936 29.8134H160.249C160.514 29.8134 160.759 29.6732 160.894 29.4459C161.029 29.2179 161.034 28.9359 160.907 28.7034L158.874 24.9909Z" fill="black"/>
<path d="M175.586 8.85575C175.586 7.59875 174.961 6.4325 173.969 5.77475L169.469 2.165C169.336 2.0585 169.171 2 169 2H160.75C160.466 2 160.206 2.1605 160.079 2.41475C159.047 4.47725 157.055 5.708 154.75 5.708C152.444 5.708 150.452 4.4765 149.421 2.414C149.294 2.1605 149.034 2 148.75 2H140.5C140.329 2 140.164 2.0585 140.031 2.165L135.584 5.735C134.538 6.4325 133.914 7.59875 133.916 8.81L133.001 23.7043C132.989 23.9105 133.062 24.113 133.204 24.2638C133.345 24.4145 133.543 24.5 133.75 24.5H140.5V44.75C140.5 45.164 140.836 45.5 141.25 45.5H168.25C168.664 45.5 169 45.164 169 44.75V24.5H175.75C175.957 24.5 176.155 24.4145 176.297 24.2638C176.438 24.113 176.512 23.9105 176.499 23.7043L175.586 8.85575ZM154.75 7.208C156.9 7.208 158.876 6.293 160.266 4.7525C159.444 7.00775 157.285 8.62475 154.75 8.62475C152.215 8.62475 150.056 7.00775 149.234 4.7525C150.624 6.29375 152.6 7.208 154.75 7.208ZM169 23V16.25C169 15.836 168.664 15.5 168.25 15.5C167.836 15.5 167.5 15.836 167.5 16.25V44H142V16.25C142 15.836 141.664 15.5 141.25 15.5C140.836 15.5 140.5 15.836 140.5 16.25V23H134.547L135.414 8.85575C135.414 8.102 135.789 7.40225 136.469 6.94475L140.764 3.5H147.413C147.791 7.2155 150.937 10.1248 154.751 10.1248C158.564 10.1248 161.71 7.2155 162.087 3.5H168.737L173.084 6.98375C173.711 7.40225 174.086 8.102 174.087 8.9015L174.953 23H169Z" fill="black"/>
<path d="M86.8 34C86.5 34 86.3 33.9 86.1 33.7C85.7 33.3 85.7 32.7 86.1 32.3L93.4 25L86.1 17.7C85.7 17.3 85.7 16.7 86.1 16.3C86.5 15.9 87.1 15.9 87.5 16.3L95.5 24.3C95.9 24.7 95.9 25.3 95.5 25.7L87.5 33.7C87.3 33.9 87 34 86.8 34Z" fill="black"/>
<path d="M90 45C79 45 70 36 70 25C70 14 79 5 90 5C94.5 5 98.7 6.5 102.3 9.2C102.7 9.5 102.8 10.2 102.5 10.6C102.2 11 101.5 11.1 101.1 10.8C97.9 8.3 94 7 90 7C80.1 7 72 15.1 72 25C72 34.9 80.1 43 90 43C99.9 43 108 34.9 108 25C108 21.8 107.1 18.6 105.5 15.8C105.2 15.3 105.4 14.7 105.8 14.4C106.3 14.1 106.9 14.3 107.2 14.7C109 17.9 110 21.4 110 25C110 36 101 45 90 45Z" fill="black"/>
<path d="M216.8 34C216.5 34 216.3 33.9 216.1 33.7C215.7 33.3 215.7 32.7 216.1 32.3L223.4 25L216.1 17.7C215.7 17.3 215.7 16.7 216.1 16.3C216.5 15.9 217.1 15.9 217.5 16.3L225.5 24.3C225.9 24.7 225.9 25.3 225.5 25.7L217.5 33.7C217.3 33.9 217 34 216.8 34Z" fill="black"/>
<path d="M220 45C209 45 200 36 200 25C200 14 209 5 220 5C224.5 5 228.7 6.5 232.3 9.2C232.7 9.5 232.8 10.2 232.5 10.6C232.2 11 231.5 11.1 231.1 10.8C227.9 8.3 224 7 220 7C210.1 7 202 15.1 202 25C202 34.9 210.1 43 220 43C229.9 43 238 34.9 238 25C238 21.8 237.1 18.6 235.5 15.8C235.2 15.3 235.4 14.7 235.8 14.4C236.3 14.1 236.9 14.3 237.2 14.7C239 17.9 240 21.4 240 25C240 36 231 45 220 45Z" fill="black"/>
</svg>
